<svg width="26" height="20" viewBox="0 0 27 22" fill="none" xmlns="http://www.w3.org/2000/svg">
<path d="M24.8071 4.01562H7.92444C7.26371 4.01562 6.72656 3.47791 6.72656 2.81774V1.41182C6.72656 0.751379 7.26427 0.214234 7.92444 0.214234H24.8071C25.4675 0.214234 26.005 0.751371 26.005 1.41182V2.81774C26.005 3.47819 25.4676 4.01562 24.8071 4.01562Z" fill="#1465C8"/>
<path d="M24.8071 12.457H7.92444C7.26371 12.457 6.72656 11.9202 6.72656 11.2603V9.85272C6.72656 9.19199 7.26427 8.65484 7.92444 8.65484H24.8071C25.4675 8.65484 26.005 9.19255 26.005 9.85272V11.2603C26.005 11.9202 25.4676 12.457 24.8071 12.457Z" fill="#1465C8"/>
<path d="M24.8071 20.8984H7.92444C7.26371 20.8984 6.72656 20.3613 6.72656 19.7008V18.293C6.72656 17.6331 7.26427 17.0962 7.92444 17.0962H24.8071C25.4675 17.0962 26.005 17.6331 26.005 18.293V19.7008C26.005 20.3613 25.4676 20.8984 24.8071 20.8984Z" fill="#1465C8"/>
<path d="M4.45439 18.8781C4.45439 17.6482 3.45722 16.6511 2.22705 16.6511C0.997169 16.6511 0 17.6482 0 18.8781C0 20.1083 0.997169 21.1055 2.22705 21.1055C3.45722 21.1055 4.45439 20.1083 4.45439 18.8781Z" fill="#1465C8"/>
<path d="M4.45439 10.5578C4.45439 9.32764 3.45722 8.33047 2.22705 8.33047C0.997169 8.33047 0 9.32764 0 10.5578C0 11.788 0.997169 12.7852 2.22705 12.7852C3.45722 12.7852 4.45439 11.788 4.45439 10.5578Z" fill="#1465C8"/>
<path d="M4.45439 2.22998C4.45439 0.999808 3.45722 0.00263977 2.22705 0.00263977C0.997169 0.00263977 0 0.999808 0 2.22998C0 3.45986 0.997169 4.45703 2.22705 4.45703C3.45722 4.45703 4.45439 3.45986 4.45439 2.22998Z" fill="#1465C8"/>
</svg>
