<svg width="24" height="24" viewBox="0 0 24 24" fill="none" xmlns="http://www.w3.org/2000/svg">
<path d="M21 6C20.999 5.73452 20.8933 5.48013 20.706 5.292L16.706 1.292C16.6135 1.19958 16.5038 1.12619 16.383 1.076C16.2617 1.02544 16.1315 0.999607 16 1H4C3.73478 1 3.48043 1.10536 3.29289 1.2929C3.10536 1.48043 3 1.73479 3 2V22C3 22.2652 3.10536 22.5196 3.29289 22.7071C3.48043 22.8946 3.73478 23 4 23H20C20.2652 23 20.5196 22.8946 20.7071 22.7071C20.8946 22.5196 21 22.2652 21 22V6ZM19 21H5V3H15V6C15 6.26522 15.1054 6.51957 15.2929 6.70711C15.4804 6.89465 15.7348 7 16 7H19V21ZM16 9C16.2652 9 16.5196 9.10536 16.7071 9.2929C16.8946 9.48043 17 9.73479 17 10C17 10.2652 16.8946 10.5196 16.7071 10.7071C16.5196 10.8946 16.2652 11 16 11H8C7.73478 11 7.48043 10.8946 7.29289 10.7071C7.10536 10.5196 7 10.2652 7 10C7 9.73479 7.10536 9.48043 7.29289 9.2929C7.48043 9.10536 7.73478 9 8 9H16ZM7 6C7 5.73479 7.10536 5.48043 7.29289 5.2929C7.48043 5.10536 7.73478 5 8 5H12C12.2652 5 12.5196 5.10536 12.7071 5.2929C12.8946 5.48043 13 5.73479 13 6C13 6.26522 12.8946 6.51957 12.7071 6.70711C12.5196 6.89465 12.2652 7 12 7H8C7.73478 7 7.48043 6.89465 7.29289 6.70711C7.10536 6.51957 7 6.26522 7 6ZM17 14C17 14.2652 16.8946 14.5196 16.7071 14.7071C16.5196 14.8946 16.2652 15 16 15H8C7.73478 15 7.48043 14.8946 7.29289 14.7071C7.10536 14.5196 7 14.2652 7 14C7 13.7348 7.10536 13.4804 7.29289 13.2929C7.48043 13.1054 7.73478 13 8 13H16C16.2652 13 16.5196 13.1054 16.7071 13.2929C16.8946 13.4804 17 13.7348 17 14ZM17 18C17 18.2652 16.8946 18.5196 16.7071 18.7071C16.5196 18.8946 16.2652 19 16 19H8C7.73478 19 7.48043 18.8946 7.29289 18.7071C7.10536 18.5196 7 18.2652 7 18C7 17.7348 7.10536 17.4804 7.29289 17.2929C7.48043 17.1054 7.73478 17 8 17H16C16.2652 17 16.5196 17.1054 16.7071 17.2929C16.8946 17.4804 17 17.7348 17 18Z" fill="#1465C8"/>
</svg>
