<svg width="8" height="20" viewBox="0 0 8 20" fill="none" xmlns="http://www.w3.org/2000/svg">
  <path d="M3.99996 0C1.79087 0 0 2.03511 0 4.54545V16.5909C0 18.4718 1.34484 20 2.99997 20C4.65509 20 5.99994 18.4718 5.99994 16.5909V5.45455C5.99994 4.20325 5.10109 3.18182 3.99996 3.18182C2.89883 3.18182 1.99998 4.20325 1.99998 5.45455V14.5455C1.99844 14.6671 2.03988 14.7844 2.11507 14.8711C2.19027 14.9576 2.29295 15.0065 2.39995 15.0065C2.50709 15.0065 2.60963 14.9576 2.68483 14.8711C2.76002 14.7844 2.80145 14.6671 2.79992 14.5455V5.45455C2.79992 4.69119 3.32824 4.09083 3.99998 4.09083C4.67172 4.09083 5.20004 4.69119 5.20004 5.45455V16.5909C5.20004 17.9838 4.22573 19.091 2.99999 19.091C1.77425 19.091 0.799941 17.9838 0.799941 16.5909V4.54545C0.799941 2.52305 2.22028 0.90901 3.99998 0.90901C5.77968 0.90901 7.20002 2.52305 7.20002 4.54545V15.4545C7.19848 15.5763 7.23992 15.6936 7.31511 15.7802C7.39031 15.8669 7.49285 15.9156 7.59999 15.9156C7.70699 15.9156 7.80967 15.8669 7.88486 15.7802C7.96006 15.6936 8.00149 15.5763 7.99996 15.4545V4.54545C7.99996 2.03511 6.20908 0 4 0H3.99996Z" fill="white"/>
</svg>
