<svg width="50" height="40" viewBox="0 0 50 40" fill="none" xmlns="http://www.w3.org/2000/svg">
<path fill-rule="evenodd" clip-rule="evenodd" d="M44.3342 15.3411C43.9246 16.0749 42.9008 16.6722 42.0646 16.6722H27.2864C26.4502 16.6722 26.0919 16.0749 26.5185 15.3411L31.8939 5.87012C32.3035 5.13633 33.3444 4.53906 34.1806 4.53906H48.8393C49.6755 4.53906 50.0339 5.13633 49.6243 5.87012L44.3342 15.3411Z" fill="#00A8FC"/>
<path fill-rule="evenodd" clip-rule="evenodd" d="M31.7069 20.0165C31.7069 26.4841 26.4509 31.7401 19.9833 31.7401C13.5157 31.7401 8.25976 26.4841 8.25976 20.0165C8.25976 13.5489 13.5157 8.29296 19.9833 8.29296C22.1164 8.29296 24.0959 8.8561 25.8195 9.86293L26.9799 7.83221C24.9151 6.63767 22.526 5.95508 19.9833 5.95508C12.2359 5.95508 5.92188 12.2691 5.92188 20.0165C5.92188 27.764 12.2359 34.0779 19.9833 34.0779C27.7307 34.0779 34.0447 27.764 34.0447 20.0165C34.0447 19.9994 34.0447 19.9824 34.0447 19.9653H31.7069C31.7069 19.9824 31.7069 19.9994 31.7069 20.0165Z" fill="#1465C8"/>
<path fill-rule="evenodd" clip-rule="evenodd" d="M26.8768 20.0684C26.8768 23.8397 23.8051 26.8943 20.0508 26.8943C16.2795 26.8943 13.2249 23.8397 13.2249 20.0684C13.2249 16.2971 16.2795 13.2425 20.0508 13.2425C21.2624 13.2425 22.4058 13.5667 23.3955 14.1128L24.2829 12.5428C23.0372 11.8261 21.5867 11.4336 20.0508 11.4336C15.2897 11.4336 11.416 15.3073 11.416 20.0684C11.416 24.8295 15.2897 28.7032 20.0508 28.7032C24.8119 28.7032 28.6856 24.8295 28.6856 20.0684C28.6856 20.0343 28.6856 20.0001 28.6856 19.966H26.8768C26.8768 20.0001 26.8768 20.0343 26.8768 20.0684Z" fill="#1465C8"/>
<path fill-rule="evenodd" clip-rule="evenodd" d="M37.116 19.9659C37.116 19.9829 37.116 20 37.116 20.0171C37.116 29.4539 29.4369 37.1331 20 37.1331C10.5631 37.1331 2.88396 29.4539 2.88396 20.0171C2.88396 10.5802 10.5631 2.90102 20 2.90102C23.1058 2.90102 26.0068 3.7372 28.5154 5.17065L29.9488 2.66212C27.0137 0.972696 23.6177 0 20 0C8.97611 0 0 8.97611 0 20C0 31.0239 8.97611 40 20 40C31.0239 40 40 31.0239 40 20C40 19.9829 40 19.9659 40 19.9488H37.116V19.9659Z" fill="#1465C8"/>
<path fill-rule="evenodd" clip-rule="evenodd" d="M22.5597 19.9823C22.5597 21.3645 21.4334 22.4908 20.0511 22.4908C18.6689 22.4908 17.5426 21.3645 17.5426 19.9823C17.5426 18.6 18.6689 17.4737 20.0511 17.4737C20.4948 17.4737 20.9214 17.5932 21.2969 17.798L21.9283 16.7058C21.3822 16.3987 20.7508 16.2109 20.0682 16.2109C17.9863 16.2109 16.2969 17.9004 16.2969 19.9823C16.2969 22.0642 17.9863 23.7536 20.0682 23.7536C22.1501 23.7536 23.8395 22.0642 23.8395 19.9823C23.8395 19.9823 23.8395 19.9823 23.8395 19.9652L22.5597 19.9823C22.5597 19.9823 22.5597 19.9652 22.5597 19.9823Z" fill="#1465C8"/>
<path fill-rule="evenodd" clip-rule="evenodd" d="M35.2392 12.8853H32.6283L31.8433 14.4382H30.2051L34.3006 6.89551H35.8365L36.9969 14.4382H35.4099L35.2392 12.8853ZM33.2605 11.622H35.0694L34.9499 10.4786L34.7451 8.72094H34.6939L33.8919 10.3592L33.2605 11.622Z" fill="white"/>
<path fill-rule="evenodd" clip-rule="evenodd" d="M42.9877 13.5678C42.7658 13.7555 42.544 13.9091 42.3221 14.0456C42.1003 14.165 41.8614 14.2674 41.6395 14.3357C41.4177 14.4039 41.1788 14.4551 40.957 14.4722C40.7351 14.4893 40.5303 14.5063 40.3256 14.5063C39.9843 14.5063 39.6771 14.4551 39.387 14.3527C39.0969 14.2504 38.8409 14.0968 38.6191 13.9091C38.3972 13.7043 38.2266 13.4654 38.0901 13.1923C37.9535 12.9193 37.9023 12.5951 37.9023 12.2538C37.9023 12.1514 37.9023 12.0661 37.9194 11.9637C37.9194 11.8613 37.9365 11.776 37.9706 11.6736L38.4484 9.25036C38.5337 8.8408 38.6703 8.48244 38.858 8.17527C39.0457 7.8681 39.2846 7.6292 39.5747 7.42442C39.8477 7.21964 40.172 7.06606 40.4962 6.98073C40.8375 6.87834 41.1788 6.82715 41.5542 6.82715C41.7761 6.82715 41.9979 6.84421 42.2197 6.87834C42.4416 6.91247 42.6634 6.9466 42.8853 7.01486C43.0901 7.08312 43.2948 7.15138 43.4825 7.25377C43.6703 7.35616 43.8238 7.45855 43.9433 7.578L43.073 8.73841C42.8853 8.53363 42.6464 8.39711 42.3904 8.32885C42.1174 8.2606 41.8614 8.2094 41.6054 8.2094C41.4177 8.2094 41.2471 8.22647 41.0593 8.27766C40.8887 8.32885 40.718 8.39711 40.5474 8.51657C40.3938 8.61896 40.2573 8.77254 40.1378 8.94319C40.0184 9.11384 39.9331 9.33568 39.8819 9.57459L39.4723 11.6224C39.4382 11.7589 39.4211 11.8954 39.4211 12.0319C39.4211 12.4074 39.5406 12.6975 39.7624 12.8681C39.9843 13.0388 40.2573 13.1411 40.5815 13.1411C40.7351 13.1411 40.8887 13.1241 41.0764 13.0729C41.2641 13.0388 41.4518 12.9364 41.6395 12.7998L41.8955 11.5712H40.7863L41.0423 10.2401H43.602L42.9877 13.5678Z" fill="white"/>
</svg>
